<svg width="21" height="14" viewbox="0 0 21 14" xmlns="http://www.w3.org/2000/svg">
  <path d="M6.816.006C8.5-.071 10.08.646 11.37 1.655a24.11 24.11 0 0 1-1.728 1.754C8.091 2.36 5.89 2.06 4.34 3.272c-2.217 1.503-2.317 5.05-.186 6.668 2.073 1.843 5.991.928 6.564-1.895-1.298-.02-2.6 0-3.899-.042-.003-.76-.006-1.518-.003-2.278 2.17-.006 4.341-.01 6.516.007.13 1.786-.11 3.688-1.23 5.164-1.696 2.34-5.1 3.022-7.756 2.02C1.681 11.921-.207 9.161.018 6.348.077 2.905 3.305-.11 6.816.006zm10.375 3.812h1.893c.004.634.007 1.27.014 1.903.632.007 1.27.007 1.902.013v1.893l-1.902.016c-.007.636-.01 1.27-.014 1.902h-1.896c-.006-.632-.006-1.266-.013-1.899l-1.902-.02V5.735c.633-.006 1.266-.01 1.902-.013.004-.636.01-1.27.016-1.903z" fill="#FFF" fill-rule="evenodd"></path>
</svg>
