<svg width="17" height="16" viewbox="0 0 17 16" xmlns="http://www.w3.org/2000/svg">
  <path d="M8.205 3.322c1.3 0 2.521.563 3.418 1.445v.003c0-.423.29-.742.694-.742l.101-.001c.631 0 .76.586.76.771l.004 6.584c-.045.431.454.653.73.377 1.077-1.086 2.366-5.585-.67-8.192-2.831-2.43-6.629-2.03-8.649-.664-2.146 1.453-3.52 4.668-2.185 7.688 1.455 3.294 5.617 4.276 8.091 3.296 1.253-.496 1.832 1.165.53 1.708-1.965.822-7.438.74-9.994-3.605C-.692 9.057-.6 3.896 3.98 1.222c3.505-2.046 8.125-1.48 10.91 1.374 2.913 2.985 2.743 8.572-.097 10.745-1.288.986-3.199.025-3.187-1.413l-.013-.47a4.827 4.827 0 0 1-3.388 1.381c-2.566 0-4.825-2.215-4.825-4.733 0-2.543 2.259-4.784 4.825-4.784zm3.231 4.602C11.34 6.08 9.944 4.97 8.26 4.97h-.063c-1.945 0-3.023 1.5-3.023 3.204 0 1.908 1.305 3.113 3.015 3.113 1.907 0 3.162-1.37 3.252-2.992l-.004-.372z" fill="#FFF" fill-rule="evenodd"></path>
</svg>
