<svg xmlns="http://www.w3.org/2000/svg" viewBox="0 0 223 223" width="512" height="512">
  <path d="M111.5 0C50.5 0 0.8 47 0.8 104.7c0 31.1 14.5 60.3 39.7 80.3 3.3 2.6 8 2 10.5-1.2 2.6-3.2 2-8-1.2-10.5 -21.6-17.1-34-42.1-34-68.5C15.8 55.2 58.7 15 111.5 15c52.8 0 95.7 40.2 95.7 89.7 0 49.4-42.9 89.7-95.7 89.7 -9.2 0-18.3-1.2-27.1-3.6 -1.9-0.5-4-0.3-5.7 0.7l-31.1 17.6c-3.6 2-4.9 6.6-2.8 10.2 1.4 2.4 3.9 3.8 6.5 3.8 1.3 0 2.5-0.3 3.7-1l28.4-16.1c9.1 2.2 18.5 3.4 28 3.4 61.1 0 110.7-47 110.7-104.7C222.3 47 172.6 0 111.5 0z" fill="#FFF" fill-rule="evenodd"/>
  <path d="M114.7 71.9c-2.6-1.2-5.8-0.8-8 1.1l-57.9 49.1c-3.2 2.7-3.6 7.4-0.9 10.6 2.7 3.2 7.4 3.6 10.6 0.9l45.5-38.6v35.9c0 2.9 1.7 5.6 4.3 6.8 1 0.5 2.1 0.7 3.2 0.7 1.7 0 3.5-0.6 4.9-1.8l57.9-49.1c3.2-2.7 3.6-7.4 0.9-10.6   -2.7-3.2-7.4-3.6-10.6-0.9l-45.5 38.6V78.7C119 75.7 117.3 73.1 114.7 71.9z" fill="#FFF" fill-rule="evenodd"/>
</svg>
