<svg width="12" height="18" viewbox="0 0 12 18" xmlns="http://www.w3.org/2000/svg">
  <path d="M6.843 8.83c2.17-.468 4.162-2.626 3.521-5.3C9.863 1.442 7.561-.599 4.742.161c-6.148 1.662-3.661 9.912 2.1 8.668zm-1.6-6.458c1.39-.375 2.504.554 2.788 1.57.363 1.305-.592 2.394-1.618 2.657-2.913.747-4.16-3.43-1.17-4.227zM9.05 9.536c.41-.23.748-.608 1.367-.577.832.044 2.514 1.404-.445 2.824-1.624.778-1.699.558-2.972.926.22.411 2.55 2.453 3.214 3.082 1.103 1.046.164 2.234-.967 2.115-.718-.077-2.971-2.352-3.38-2.82-.92.438-2.541 2.674-3.431 2.81-1.175.182-2.155-1.091-.96-2.19L4.65 12.73c-.287-.145-1.171-.261-1.59-.389C-1.57 10.93.08 8.838 1.405 8.963c.478.046.907.42 1.274.621 1.931 1.05 4.463 1.029 6.37-.048z" fill="#FFF" fill-rule="evenodd"></path>
</svg>
