<svg width="21" height="17" viewbox="0 0 21 17" xmlns="http://www.w3.org/2000/svg">
  <path d="M10.873 13.323c-.784.757-1.56 1.501-2.329 2.252-.268.262-.57.407-.956.387-.263-.014-.41-.13-.49-.378-.589-1.814-1.187-3.626-1.773-5.44a.425.425 0 0 0-.322-.317A417.257 417.257 0 0 1 .85 8.541a2.37 2.37 0 0 1-.59-.265c-.309-.203-.353-.527-.07-.762.26-.216.57-.397.886-.522C2.828 6.304 4.59 5.638 6.35 4.964L19.039.101c.812-.311 1.442.12 1.366.988-.05.572-.2 1.137-.32 1.702-.938 4.398-1.88 8.794-2.82 13.191l-.003.026c-.23 1.006-.966 1.28-1.806.668-1.457-1.065-2.91-2.134-4.366-3.201-.068-.05-.14-.098-.217-.152zm-3.22 1.385c.023-.103.038-.151.043-.2.092-.989.189-1.977.27-2.967a.732.732 0 0 1 .256-.534c2.208-1.968 4.41-3.943 6.613-5.917.626-.561 1.256-1.12 1.876-1.688.065-.06.08-.174.117-.263-.095-.027-.203-.095-.285-.072-.189.052-.38.127-.545.23C12.722 5.343 9.45 7.395 6.175 9.44c-.167.104-.214.19-.147.389.518 1.547 1.022 3.098 1.531 4.648.02.061.048.12.094.23z" fill="#FFF" fill-rule="evenodd"></path>
</svg>
