<svg width="18" height="15" viewbox="0 0 18 15" xmlns="http://www.w3.org/2000/svg">
  <path d="M0 12.616a10.657 10.657 0 0 0 5.661 1.615c6.793 0 10.507-5.476 10.507-10.223 0-.156-.003-.31-.01-.464A7.38 7.38 0 0 0 18 1.684a7.461 7.461 0 0 1-2.12.564A3.621 3.621 0 0 0 17.503.262c-.713.411-1.505.71-2.345.871A3.739 3.739 0 0 0 12.462 0C10.422 0 8.77 1.607 8.77 3.59c0 .283.033.556.096.82A10.578 10.578 0 0 1 1.254.656a3.506 3.506 0 0 0-.5 1.807c0 1.246.65 2.346 1.642 2.99a3.731 3.731 0 0 1-1.673-.45v.046c0 1.74 1.274 3.193 2.962 3.523a3.756 3.756 0 0 1-.972.126c-.239 0-.47-.022-.695-.064.469 1.428 1.833 2.467 3.449 2.494A7.531 7.531 0 0 1 .88 12.665c-.298 0-.591-.014-.881-.049" fill="#FFF" fill-rule="evenodd"></path>
</svg>
