<svg width="21" height="21" viewbox="0 0 21 21" xmlns="http://www.w3.org/2000/svg">
  <path d="M18.639 14.904c-.628-.506-1.3-.96-1.96-1.423-1.318-.926-2.523-.997-3.506.491-.552.836-1.325.873-2.133.506-2.228-1.01-3.949-2.567-4.956-4.831-.446-1.002-.44-1.9.603-2.609.552-.375 1.108-.818 1.064-1.637C7.693 4.334 5.1.765 4.077.39 3.653.233 3.23.243 2.8.388.4 1.195-.594 3.169.358 5.507c2.84 6.974 7.84 11.829 14.721 14.792.392.169.828.236 1.049.297 1.567.015 3.402-1.494 3.932-2.992.51-1.441-.568-2.013-1.421-2.7zm-7.716-13.8c-.417-.064-1.052.026-1.02-.525.046-.817.8-.513 1.165-.565 4.833.163 8.994 4.587 8.935 9.359-.006.468.162 1.162-.536 1.149-.668-.013-.493-.717-.553-1.185-.64-5.067-2.96-7.46-7.991-8.233zm.984 1.39c3.104.372 5.64 3.065 5.615 6.024-.047.35.157.95-.409 1.036-.764.116-.615-.583-.69-1.033-.511-3.082-1.593-4.213-4.7-4.907-.458-.102-1.17-.03-1.052-.736.113-.671.752-.443 1.236-.385zm.285 2.419c1.377-.034 2.992 1.616 2.969 3.044.014.39-.028.802-.49.857-.333.04-.552-.24-.586-.585-.128-1.272-.798-2.023-2.073-2.228-.382-.061-.757-.184-.579-.7.12-.345.436-.38.76-.388z" fill="#FFF" fill-rule="evenodd"></path>
</svg>
