<svg width="22" height="12" viewbox="0 0 22 12" xmlns="http://www.w3.org/2000/svg">
  <path d="M10.764 11.94h1.315s.397-.042.6-.251c.187-.192.18-.552.18-.552s-.025-1.685.794-1.934c.807-.245 1.844 1.629 2.942 2.35.832.545 1.463.425 1.463.425l2.938-.039s1.537-.09.808-1.244c-.06-.095-.425-.855-2.184-2.415-1.843-1.633-1.596-1.37.623-4.195 1.351-1.72 1.892-2.771 1.722-3.22-.16-.43-1.154-.316-1.154-.316l-3.308.02s-.246-.033-.427.071c-.178.102-.292.34-.292.34s-.524 1.33-1.222 2.463C14.09 5.833 13.5 5.96 13.26 5.81c-.56-.346-.42-1.388-.42-2.13 0-2.315.368-3.28-.716-3.531-.36-.082-.624-.137-1.544-.146C9.4-.01 8.4.006 7.835.27c-.377.176-.668.568-.49.59.218.029.713.128.976.47.339.44.327 1.43.327 1.43s.195 2.725-.455 3.064c-.446.232-1.057-.242-2.371-2.41-.673-1.11-1.18-2.338-1.18-2.338S4.542.848 4.368.725C4.157.576 3.86.529 3.86.529L.717.549S.245.562.072.757c-.155.175-.012.536-.012.536s2.46 5.5 5.247 8.271c2.556 2.542 5.457 2.375 5.457 2.375" fill="#FFF" fill-rule="evenodd"></path>
</svg>
