<svg width="22" height="22" viewbox="0 0 22 22" xmlns="http://www.w3.org/2000/svg">
  <path d="M7.926 5.587c-.213-.51-.375-.53-.698-.543a6.234 6.234 0 0 0-.369-.013c-.42 0-.86.123-1.125.395-.323.33-1.125 1.1-1.125 2.677 0 1.578 1.15 3.104 1.306 3.318.162.213 2.244 3.498 5.476 4.837 2.528 1.048 3.278.95 3.853.828.84-.181 1.894-.802 2.16-1.552.265-.75.265-1.39.187-1.527-.078-.135-.291-.213-.614-.375-.323-.161-1.894-.937-2.192-1.04-.29-.11-.569-.072-.788.239-.31.433-.614.873-.86 1.138-.194.207-.511.233-.776.123-.356-.149-1.351-.498-2.58-1.591-.95-.847-1.596-1.901-1.784-2.218-.187-.323-.02-.511.13-.685.161-.201.316-.343.478-.53.161-.188.252-.285.355-.505.11-.214.033-.434-.045-.595-.078-.162-.724-1.74-.99-2.38zM10.996 0C4.934 0 0 4.934 0 11c0 2.405.776 4.636 2.095 6.447L.724 21.534l4.228-1.351A10.913 10.913 0 0 0 11.003 22C17.067 22 22 17.066 22 11S17.067 0 11.003 0h-.006z" fill="#FFF" fill-rule="evenodd"></path>
</svg>
